<svg width="143" height="24" viewBox="0 0 143 24" version="1.1" xmlns="http://www.w3.org/2000/svg" style="fill-rule:evenodd;clip-rule:evenodd;stroke-linejoin:round;stroke-miterlimit:2;">
    <g id="ArtBoard2" transform="matrix(0.0647481,0,0,0.0654511,-0.349122,-0.223385)">
        <rect x="5.392" y="3.413" width="2208.56" height="362.328" style="fill:none;"/>
        <g id="ArtBoard1" transform="matrix(4.17952,0,0,0.686919,138.17,6.73675)">
            <g transform="matrix(0.24186,0,0,1.45578,-37.8242,-588.711)">
                <g>
                    <path d="M361.928,413.451C368.44,415.112 374.82,417.224 381.09,419.578C381.383,419.694 381.576,419.979 381.576,420.294C381.576,420.404 381.553,420.512 381.508,420.612C378.773,426.475 375.763,432.205 372.488,437.783C372.312,438.091 371.938,438.223 371.597,438.113C352.844,431.286 333.034,427.816 313.077,427.861C281.752,427.841 251.013,436.402 224.208,452.611C240.707,466.604 254.747,483.261 265.744,501.891C267.863,505.463 269.881,509.095 271.794,512.781C273.039,515.299 274.234,517.84 275.38,520.404C286.594,545.207 292.384,572.12 292.364,599.34C292.364,653.702 269.583,702.971 233.151,737.995C230.313,740.734 227.255,743.418 224.208,745.992C221.788,748.082 219.368,750.04 216.794,751.932C213.615,754.407 210.337,756.728 207.015,759.005C206.76,759.18 206.422,759.18 206.168,759.005C202.835,756.783 199.524,754.462 196.345,751.932C193.815,750.04 191.395,748.082 188.975,745.992C185.873,743.418 182.925,740.789 180.087,737.995C143.6,702.971 120.83,653.757 120.83,599.329C120.812,576.461 124.888,553.772 132.864,532.339C136.788,521.769 141.666,511.577 147.439,501.891C158.419,483.249 172.461,466.589 188.975,452.611C163.004,436.947 132.6,427.861 100.095,427.861C80.138,427.816 60.328,431.286 41.575,438.113C41.245,438.234 40.871,438.102 40.695,437.794C37.428,432.25 34.392,426.519 31.664,420.601C31.621,420.504 31.599,420.399 31.599,420.293C31.599,419.979 31.791,419.695 32.082,419.578C38.352,417.177 44.753,415.131 51.255,413.451C66.82,409.293 83.232,407.137 100.117,407.137C138.01,407.071 175.081,418.273 206.597,439.312C238.119,418.286 275.185,407.085 313.077,407.137C329.566,407.106 345.988,409.229 361.928,413.451ZM271.64,599.351C271.64,644.825 253.853,686.196 224.835,716.919C219.614,700.251 216.958,682.884 216.959,665.417C216.959,619.943 234.746,578.495 263.764,547.849C268.868,564.118 271.64,581.421 271.64,599.351ZM196.224,665.417C196.224,683.314 193.474,700.617 188.348,716.919C158.267,685.186 141.502,643.076 141.543,599.351C141.543,581.421 144.348,564.118 149.485,547.849C179.559,579.581 196.302,621.698 196.224,665.417ZM243.672,515.048C242.682,547.466 203.227,569.308 203.227,569.308C203.227,569.308 168.124,547.447 168.009,515.007C167.947,497.608 191.426,477.028 206.641,464.964C221.829,477.043 244.203,497.656 243.672,515.048Z" style="fill:rgb(135,154,157);"/>
                </g>
            </g>
            <g transform="matrix(0.24186,0,0,1.45578,-31.7688,-4.83817)">
                <path d="M641.162,126.826C641.496,126.821 641.829,126.819 642.162,126.819C651.867,126.819 660.925,128.694 669.983,132.133C678.718,135.571 686.158,140.885 692.952,147.762C699.745,154.638 704.921,163.078 709.127,172.768C713.009,182.77 714.95,194.023 714.95,206.839C714.95,207.169 714.949,207.498 714.946,207.827C714.949,208.163 714.95,208.5 714.95,208.839C714.95,221.342 713.009,232.595 709.127,242.285C704.921,252.287 699.745,260.727 692.952,267.291C686.158,274.167 678.718,279.481 669.983,282.92C660.925,286.358 651.867,288.233 642.162,288.233C641.829,288.233 641.496,288.231 641.162,288.227C640.829,288.231 640.496,288.233 640.162,288.233C630.458,288.233 621.4,286.358 612.665,282.92C603.931,279.481 596.167,274.167 589.373,267.291C582.58,260.727 577.404,252.287 573.522,242.285C569.316,232.595 567.375,221.342 567.375,208.839C567.375,208.5 567.376,208.163 567.379,207.827C567.376,207.498 567.375,207.169 567.375,206.839C567.375,194.023 569.316,182.77 573.522,172.768C577.404,163.078 582.58,154.638 589.373,147.762C596.167,140.885 603.931,135.571 612.665,132.133C621.4,128.694 630.458,126.819 640.162,126.819C640.496,126.819 640.829,126.821 641.162,126.826ZM1433.38,284.483L1431.21,267.095C1424.03,272.734 1416.26,277.776 1407.89,281.669C1399.15,286.045 1390.1,288.233 1380.07,288.233C1379.73,288.233 1379.39,288.231 1379.06,288.226C1378.73,288.231 1378.4,288.233 1378.07,288.233C1364.8,288.233 1354.13,284.483 1345.39,276.981C1336.66,269.479 1332.13,258.851 1332.13,245.098C1332.13,244.778 1332.13,244.46 1332.14,244.144C1332.13,243.797 1332.13,243.448 1332.13,243.098C1332.13,226.531 1339.89,213.715 1355.1,204.651C1370.3,195.9 1394.88,189.649 1428.51,186.211C1428.43,182.188 1428.07,178.165 1427.24,174.143C1426.27,169.454 1424.33,165.39 1422.06,161.952C1419.8,158.514 1416.56,155.388 1412.36,153.2C1408.36,151.121 1403.2,150.171 1397.15,150.081C1388.48,150.197 1380.4,151.769 1372.63,155.075C1364.54,158.514 1357.42,162.265 1351.28,166.328L1350.73,165.386C1350.24,165.698 1349.75,166.012 1349.28,166.328L1338.92,148.511C1339.21,148.334 1339.49,148.156 1339.78,147.979L1338.92,146.511C1346.36,141.823 1355.1,137.446 1365.77,133.07C1376.45,129.007 1388.1,126.819 1400.71,126.819C1401.04,126.819 1401.36,126.82 1401.69,126.824C1402.03,126.82 1402.37,126.819 1402.71,126.819C1421.8,126.819 1435.71,132.445 1444.44,143.698C1453.18,155.263 1457.38,170.267 1457.38,189.334L1457.38,284.483L1433.38,284.483ZM819.425,126.825C819.754,126.821 820.082,126.819 820.411,126.819C830.763,126.819 839.498,128.694 846.938,132.133C854.379,135.571 860.849,139.947 866.348,144.636L865.388,145.829C865.711,146.097 866.031,146.366 866.348,146.636L852.761,163.515C852.372,163.166 851.981,162.824 851.587,162.489L850.761,163.515C846.232,159.451 841.38,156.326 836.527,153.825C831.613,151.451 826.115,150.204 820.31,150.084C813.613,150.204 807.485,151.466 801.648,154.138C795.502,156.951 790.326,161.014 786.12,166.328C781.915,171.642 778.356,177.894 776.092,184.77C773.603,191.685 772.31,199.467 772.216,207.839C772.31,216.187 773.59,223.68 775.768,230.595C778.033,237.784 781.591,243.723 785.797,248.724C790.002,254.038 794.855,257.789 801.001,260.602C806.865,263.286 813.023,264.832 819.756,264.968C826.797,264.831 833.251,263.272 839.115,260.289C845.262,257.476 850.761,253.725 855.614,249.662L856.329,250.717C856.762,250.368 857.19,250.016 857.614,249.662L869.26,266.854C868.971,267.095 868.681,267.334 868.39,267.57L869.26,268.854C862.143,274.793 854.379,279.481 845.644,282.92C836.91,286.671 827.852,288.233 818.47,288.233C818.133,288.233 817.796,288.231 817.46,288.227C817.13,288.231 816.8,288.233 816.47,288.233C806.118,288.233 796.413,286.358 787.355,282.92C778.297,279.481 770.533,274.167 764.063,267.291C757.27,260.727 752.094,252.287 748.535,242.285C744.653,232.595 742.712,221.342 742.712,208.839C742.712,208.5 742.714,208.163 742.717,207.827C742.714,207.498 742.712,207.169 742.712,206.839C742.712,194.023 744.653,182.77 748.859,172.768C753.064,163.078 758.564,154.638 765.357,147.762C772.151,140.885 780.238,135.571 789.62,132.133C798.678,128.694 808.383,126.819 818.411,126.819C818.751,126.819 819.088,126.821 819.425,126.825ZM1569.95,126.825C1570.28,126.821 1570.6,126.819 1570.93,126.819C1581.29,126.819 1590.02,128.694 1597.46,132.133C1604.9,135.571 1611.37,139.947 1616.87,144.636L1615.91,145.829C1616.23,146.097 1616.55,146.366 1616.87,146.636L1603.28,163.515C1602.89,163.166 1602.5,162.824 1602.11,162.489L1601.28,163.515C1596.75,159.451 1591.9,156.326 1587.05,153.825C1582.13,151.451 1576.64,150.204 1570.83,150.084C1564.13,150.204 1558.01,151.466 1552.17,154.138C1546.02,156.951 1540.85,161.014 1536.64,166.328C1532.44,171.642 1528.88,177.894 1526.61,184.77C1524.12,191.685 1522.83,199.467 1522.74,207.839C1522.83,216.187 1524.11,223.68 1526.29,230.595C1528.55,237.784 1532.11,243.723 1536.32,248.724C1540.52,254.038 1545.38,257.789 1551.52,260.602C1557.39,263.286 1563.55,264.832 1570.28,264.968C1577.32,264.831 1583.77,263.272 1589.64,260.289C1595.78,257.476 1601.28,253.725 1606.13,249.662L1606.85,250.717C1607.28,250.368 1607.71,250.016 1608.13,249.662L1619.78,266.854C1619.49,267.095 1619.2,267.334 1618.91,267.57L1619.78,268.854C1612.66,274.793 1604.9,279.481 1596.17,282.92C1587.43,286.671 1578.37,288.233 1568.99,288.233C1568.65,288.233 1568.32,288.231 1567.98,288.227C1567.65,288.231 1567.32,288.233 1566.99,288.233C1556.64,288.233 1546.93,286.358 1537.88,282.92C1528.82,279.481 1521.06,274.167 1514.59,267.291C1507.79,260.727 1502.62,252.287 1499.06,242.285C1495.17,232.595 1493.23,221.342 1493.23,208.839C1493.23,208.5 1493.24,208.163 1493.24,207.827C1493.24,207.498 1493.23,207.169 1493.23,206.839C1493.23,194.023 1495.17,182.77 1499.38,172.768C1503.59,163.078 1509.09,154.638 1515.88,147.762C1522.67,140.885 1530.76,135.571 1540.14,132.133C1549.2,128.694 1558.9,126.819 1568.93,126.819C1569.27,126.819 1569.61,126.821 1569.95,126.825ZM1233.17,126.826C1233.5,126.821 1233.84,126.819 1234.17,126.819C1243.88,126.819 1252.93,128.694 1261.99,132.133C1270.73,135.571 1278.17,140.885 1284.96,147.762C1291.75,154.638 1296.93,163.078 1301.13,172.768C1305.02,182.77 1306.96,194.023 1306.96,206.839C1306.96,207.169 1306.96,207.498 1306.95,207.827C1306.96,208.163 1306.96,208.5 1306.96,208.839C1306.96,221.342 1305.02,232.595 1301.13,242.285C1296.93,252.287 1291.75,260.727 1284.96,267.291C1278.17,274.167 1270.73,279.481 1261.99,282.92C1252.93,286.358 1243.88,288.233 1234.17,288.233C1233.84,288.233 1233.5,288.231 1233.17,288.227C1232.84,288.231 1232.51,288.233 1232.17,288.233C1222.47,288.233 1213.41,286.358 1204.67,282.92C1195.94,279.481 1188.17,274.167 1181.38,267.291C1174.59,260.727 1169.41,252.287 1165.53,242.285C1161.33,232.595 1159.38,221.342 1159.38,208.839C1159.38,208.5 1159.38,208.163 1159.39,207.827C1159.38,207.498 1159.38,207.169 1159.38,206.839C1159.38,194.023 1161.33,182.77 1165.53,172.768C1169.41,163.078 1174.59,154.638 1181.38,147.762C1188.17,140.885 1195.94,135.571 1204.67,132.133C1213.41,128.694 1222.47,126.819 1232.17,126.819C1232.51,126.819 1232.84,126.821 1233.17,126.826ZM479.712,73.686C480.053,73.682 480.395,73.681 480.737,73.681C493.677,73.681 505,76.181 515.028,81.182C524.733,86.496 532.821,92.435 538.967,98.999L538.061,100.05C538.368,100.365 538.67,100.682 538.967,100.999L524.41,117.879C524.065,117.506 523.715,117.138 523.362,116.774L522.41,117.879C516.91,111.94 510.44,107.251 503.323,103.813C496.456,100.495 488.686,98.632 480.01,98.506C470.377,98.632 461.368,100.506 453.564,104.125C445.476,108.189 438.359,113.503 432.536,120.692C426.713,127.881 422.184,136.633 419.273,146.948C416.122,156.994 414.506,167.929 414.424,180.332C414.506,192.75 416.122,203.982 419.273,214.028C422.184,224.343 426.713,233.408 432.213,240.597C437.712,247.786 444.829,253.413 452.917,257.476C460.73,261.402 469.449,263.286 479.074,263.409C489.017,263.274 497.747,261.098 505.264,257.164C513.028,253.1 520.469,247.474 527.262,240.285L528.239,241.351C528.581,241 528.923,240.644 529.262,240.285L544.143,256.539C543.841,256.876 543.537,257.211 543.231,257.542L544.143,258.539C535.732,267.916 526.351,275.105 515.675,280.419C505,285.733 493.03,288.233 479.12,288.233C478.794,288.233 478.468,288.232 478.142,288.228C477.803,288.232 477.462,288.233 477.12,288.233C463.856,288.233 451.564,285.733 440.241,281.044C428.919,276.355 419.214,269.166 411.126,260.101C402.715,251.037 396.245,240.096 391.716,226.656C386.864,213.527 384.599,198.524 384.599,181.957C384.599,181.622 384.6,181.288 384.602,180.957C384.6,180.626 384.599,180.292 384.599,179.957C384.599,163.39 386.864,148.699 391.716,135.571C396.569,122.443 403.039,111.19 411.45,102.125C419.861,93.06 429.889,85.871 441.212,80.87C452.534,76.181 465.15,73.681 478.737,73.681C479.064,73.681 479.389,73.682 479.712,73.686ZM1830.97,77.432L1886.02,77.432C1918.69,77.432 1943.6,86.184 1960.75,103.688C1977.89,121.192 1986.3,146.199 1986.3,179.019L1986.3,181.019C1986.3,197.273 1984.04,211.652 1979.83,224.468C1975.63,237.283 1969.16,248.223 1960.75,256.976C1952.34,266.04 1941.99,272.605 1929.69,277.293C1917.4,281.982 1903.16,284.483 1887.31,284.483L1830.97,284.483L1830.97,77.432ZM958.344,212.658L930.077,244.473L930.077,284.483L901.873,284.483L901.873,59.927L930.077,59.927L930.077,209.359L996.012,130.57L1027.45,130.57L1025.72,132.57L1027.45,132.57L975.467,192.658L1034.57,282.483L1033.25,282.483L1034.57,284.483L1003.45,284.483L958.344,212.658ZM1751.71,191.647C1751.71,177.268 1749.44,166.953 1744.59,160.389C1739.9,154.34 1732.78,151.218 1722.94,151.022C1715.25,151.171 1708.16,153.056 1702.27,156.951C1696.13,161.014 1689.01,166.641 1680.92,174.455L1680.92,284.483L1652.39,284.483L1652.39,59.927L1680.92,59.927L1680.92,122.567L1680.07,149.905C1686.92,143.837 1694.24,138.538 1701.57,134.008C1709.65,129.319 1719.36,126.819 1730.36,126.819C1730.7,126.819 1731.05,126.821 1731.39,126.826C1731.71,126.821 1732.03,126.819 1732.36,126.819C1748.86,126.819 1761.15,131.82 1768.91,141.823C1776.36,151.825 1780.24,166.516 1780.24,186.209L1780.24,284.483L1751.71,284.483L1751.71,191.647ZM1086.01,130.57L1088.14,156.523C1093.44,147.58 1099.63,140.58 1106.97,135.258C1114.41,129.632 1122.83,126.819 1131.88,126.819C1132.25,126.819 1132.61,126.822 1132.97,126.829C1133.27,126.822 1133.58,126.819 1133.88,126.819C1140.03,126.819 1145.85,127.757 1150.7,129.945L1150.29,131.761C1150.43,131.821 1150.57,131.882 1150.7,131.945L1145.53,154.45C1144.89,154.22 1144.28,154.008 1143.67,153.816L1143.53,154.45C1140.94,153.512 1138.68,152.887 1136.41,152.575C1134.42,152.3 1132.18,152.026 1129.48,151.963C1122.97,152.162 1116.44,154.671 1109.62,159.764C1102.18,165.078 1096.03,174.143 1090.54,186.958L1090.54,284.483L1062.01,284.483L1062.01,130.57L1086.01,130.57ZM2095,77.432C2105.68,77.432 2115.71,78.369 2124.76,80.245C2133.5,82.12 2141.26,84.933 2147.73,88.997C2153.88,93.06 2159.05,98.062 2162.61,104.313C2166.17,110.877 2167.79,118.379 2167.79,127.444C2167.79,127.765 2167.79,128.084 2167.78,128.403C2167.79,128.748 2167.79,129.095 2167.79,129.444C2167.79,139.759 2165.2,148.824 2160.03,156.951C2154.8,164.972 2147.53,170.452 2138.21,173.659C2150.46,175.992 2160.34,181.206 2168.11,189.022C2176.2,197.149 2180.08,208.402 2180.08,222.468L2180.08,224.468C2180.08,234.47 2178.14,243.222 2174.26,250.724C2170.38,258.226 2164.88,264.478 2157.76,269.479C2150.64,274.48 2142.23,278.231 2132.2,280.732C2122.18,283.232 2111.5,284.483 2099.53,284.483L2029.92,284.483L2029.92,77.432L2095,77.432ZM1428.53,205.331C1416.16,206.873 1405.83,208.95 1397.54,211.027C1388.48,213.215 1381.36,216.028 1375.86,219.154C1370.36,222.28 1366.16,225.718 1363.89,229.781C1361.46,233.593 1360.18,237.954 1360.03,242.348C1360.24,250.512 1362.84,256.389 1368.1,259.977C1373.37,263.571 1379.53,265.443 1386.86,265.593C1393.93,265.454 1400.7,263.867 1407.18,260.289C1413.98,256.851 1421.09,251.85 1428.53,245.286L1428.53,205.331ZM1233.17,150.083C1226.77,150.201 1220.96,151.463 1215.73,154.138C1210.23,156.951 1205.38,161.014 1201.5,166.328C1197.29,171.642 1194.38,177.894 1192.12,184.77C1189.94,191.685 1188.96,199.467 1188.88,207.838C1188.96,216.187 1189.94,223.68 1192.12,230.595C1194.38,237.784 1197.29,243.723 1201.5,248.724C1205.38,254.038 1210.23,257.789 1215.73,260.602C1220.96,263.277 1226.77,264.821 1233.17,264.967C1239.57,264.821 1245.38,263.277 1250.61,260.602C1256.11,257.789 1260.96,254.038 1265.17,248.724C1269.05,243.723 1271.96,237.784 1274.23,230.595C1276.4,223.68 1277.38,216.187 1277.46,207.838C1277.38,199.467 1276.4,191.685 1274.23,184.77C1271.96,177.894 1269.05,171.642 1265.17,166.328C1260.96,161.014 1256.11,156.951 1250.61,154.138C1245.38,151.463 1239.57,150.201 1233.17,150.083ZM641.162,150.083C634.765,150.201 628.951,151.463 623.723,154.138C618.224,156.951 613.371,161.014 609.489,166.328C605.284,171.642 602.372,177.894 600.108,184.77C597.93,191.685 596.949,199.467 596.877,207.838C596.949,216.187 597.93,223.68 600.108,230.595C602.372,237.784 605.284,243.723 609.489,248.724C613.371,254.038 618.224,257.789 623.723,260.602C628.951,263.277 634.765,264.821 641.162,264.967C647.56,264.821 653.374,263.277 658.602,260.602C664.101,257.789 668.954,254.038 673.159,248.724C677.041,243.723 679.953,237.784 682.217,230.595C684.395,223.68 685.376,216.187 685.448,207.838C685.376,199.467 684.395,191.685 682.217,184.77C679.953,177.894 677.041,171.642 673.159,166.328C668.954,161.014 664.101,156.951 658.602,154.138C653.374,151.463 647.56,150.201 641.162,150.083ZM2058.77,186.646L2058.77,261.852L2093.65,261.852C2112.09,261.852 2126.32,258.414 2136.35,251.85C2146.13,245.449 2151.3,235.779 2151.55,222.55C2151.3,210.234 2146.45,201.184 2136.67,195.398C2126.65,189.459 2112.41,186.646 2093.65,186.646L2058.77,186.646ZM1859.82,100.687L1859.82,261.227L1882.08,261.227C1906.99,261.227 1925.43,254.038 1938.04,239.659C1950.18,225.466 1956.32,205.486 1956.48,180.019C1956.32,154.56 1950.18,134.893 1938.04,121.317C1925.43,107.564 1906.99,100.687 1882.08,100.687L1859.82,100.687ZM2089.44,100.062L2058.77,100.062L2058.77,164.641L2088.15,164.641C2106.26,164.641 2119.2,161.515 2127.29,155.576C2135.13,149.821 2139.02,141.718 2139.25,131.835C2139.01,120.508 2134.82,112.417 2126.97,107.564C2118.56,102.562 2105.94,100.062 2089.44,100.062Z" style="fill:rgb(135,154,157);fill-rule:nonzero;"/>
            </g>
        </g>
    </g>
</svg>
