<svg width="103" height="35" viewBox="0 0 103 35" fill="none" xmlns="http://www.w3.org/2000/svg">
<path d="M43.7117 18.1009C43.7117 22.9384 39.9273 26.503 35.283 26.503C30.6388 26.503 26.8544 22.9384 26.8544 18.1009C26.8544 13.2293 30.6388 9.69873 35.283 9.69873C39.9273 9.69873 43.7117 13.2293 43.7117 18.1009ZM40.022 18.1009C40.022 15.0779 37.8287 13.0096 35.283 13.0096C32.7374 13.0096 30.544 15.0779 30.544 18.1009C30.544 21.0935 32.7374 23.1922 35.283 23.1922C37.8287 23.1922 40.022 21.0898 40.022 18.1009Z" fill="#879A9D"/>
<path d="M61.8948 18.1009C61.8948 22.9384 58.1104 26.503 53.4662 26.503C48.8219 26.503 45.0375 22.9384 45.0375 18.1009C45.0375 13.2331 48.8219 9.69873 53.4662 9.69873C58.1104 9.69873 61.8948 13.2293 61.8948 18.1009ZM58.2051 18.1009C58.2051 15.0779 56.0118 13.0096 53.4662 13.0096C50.9205 13.0096 48.7272 15.0779 48.7272 18.1009C48.7272 21.0935 50.9205 23.1922 53.4662 23.1922C56.0118 23.1922 58.2051 21.0898 58.2051 18.1009Z" fill="#879A9D"/>
<path d="M79.3204 10.2063V25.2908C79.3204 31.4959 75.6611 34.0301 71.335 34.0301C67.2627 34.0301 64.8117 31.3064 63.8874 29.079L67.0998 27.7418C67.6718 29.1093 69.0734 30.7231 71.3312 30.7231C74.1003 30.7231 75.8164 29.0146 75.8164 25.7984V24.59H75.6876C74.8618 25.609 73.2707 26.4993 71.263 26.4993C67.0619 26.4993 63.2131 22.8399 63.2131 18.1312C63.2131 13.3884 67.0619 9.69873 71.263 9.69873C73.2669 9.69873 74.858 10.5889 75.6876 11.5777H75.8164V10.2101H79.3204V10.2063ZM76.0778 18.1312C76.0778 15.1726 74.1041 13.0096 71.5926 13.0096C69.0469 13.0096 66.9142 15.1726 66.9142 18.1312C66.9142 21.0594 69.0469 23.1922 71.5926 23.1922C74.1041 23.1922 76.0778 21.0594 76.0778 18.1312Z" fill="#879A9D"/>
<path d="M85.0974 1.36426V25.9874H81.4987V1.36426H85.0974Z" fill="#879A9D"/>
<path d="M99.1213 20.8661L101.985 22.7754C101.061 24.1429 98.8334 26.4991 94.9846 26.4991C90.2115 26.4991 86.6469 22.8095 86.6469 18.097C86.6469 13.1004 90.2418 9.69482 94.5717 9.69482C98.9319 9.69482 101.065 13.1648 101.762 15.0399L102.144 15.9945L90.9123 20.6464C91.7722 22.3322 93.1095 23.1921 94.9846 23.1921C96.8635 23.1921 98.1667 22.2678 99.1213 20.8661ZM90.3062 17.8432L97.8144 14.7255C97.4015 13.6762 96.1589 12.9451 94.6967 12.9451C92.8216 12.9451 90.2115 14.6005 90.3062 17.8432Z" fill="#879A9D"/>
<path d="M13.2321 15.9155V12.3508H25.2444C25.3618 12.9721 25.4224 13.707 25.4224 14.5025C25.4224 17.177 24.6913 20.484 22.335 22.8403C20.0432 25.2268 17.1149 26.4996 13.2359 26.4996C6.04592 26.4996 0 20.6431 0 13.4532C0 6.26325 6.04592 0.406738 13.2359 0.406738C17.2134 0.406738 20.047 1.96746 22.1759 4.00171L19.6606 6.51706C18.134 5.08513 16.0656 3.97141 13.2321 3.97141C7.98167 3.97141 3.8753 8.20279 3.8753 13.4532C3.8753 18.7036 7.98167 22.935 13.2321 22.935C16.6376 22.935 18.5772 21.5675 19.8197 20.3249C20.8274 19.3173 21.4903 17.8778 21.7517 15.9117L13.2321 15.9155Z" fill="#879A9D"/>
</svg>
