<svg width="170" height="45" viewBox="0 0 170 124" version="1.1" xmlns="http://www.w3.org/2000/svg"
     xml:space="preserve"
     style="fill-rule:evenodd;clip-rule:evenodd;stroke-linejoin:round;stroke-miterlimit:2;">
    <g transform="matrix(0.205793,0,0,0.205793,-60.5458,-52.9535)">
            <g>
                <path d="M416,618L416,298L296,298L296,598C296,680.44 350.43,717.99 401,717.99C416.07,717.99 431.17,714.54 444.71,708.22C446.71,707.29 449.91,705.29 449.91,705.29C449.91,705.29 446.87,702.09 445.63,700.68C426.43,678.84 416,650.42 416,618Z"
                      style="fill:#879A9D;fill-rule:nonzero;"/>
                <path d="M1116,538L1116,418L1073.18,418C1055.29,323.68 956.16,261.74 856.54,298.97C801.06,319.71 756,386.03 756,445.26L756,717.88C756,717.88 760.95,717.89 761,717.89L761.21,717.89C792.11,716.56 820.99,703.49 842.51,681.08C864.11,658.6 876,629.09 876,598L926,598L926,478L876,478L876,445.02C876,432.2 882.77,420.21 893.98,413.98C924.71,396.92 956,418.87 956,448L956,558C956,601.53 972.42,641.92 1002.25,671.75C1030.78,700.28 1069.35,716.68 1110.85,717.92L1116,717.92L1116,598.01C1116,598.01 1116,598 1115.99,598C1093.56,597.94 1076,579.87 1076,558L1076,538L1116,538Z"
                      style="fill:#879A9D;fill-rule:nonzero;"/>
                <path d="M606,418L606,578C606,589.05 597.05,598 586,598C574.95,598 566,589.05 566,578L566,418L446,418L446,618C446,673.14 490.86,718 546,718C569.83,718 592.92,709.47 611,694C609.13,708.76 600.98,721.05 587.42,729.54C574.71,737.5 558.16,741.7 539.55,741.71C520.39,741.71 500.89,737.2 483.17,728.67C483.17,728.67 480,727.16 476,724.88L476,831.47C502.71,842.29 531.96,848.01 560.31,848.01C605.14,848.01 646.05,833.99 675.49,808.54C708.54,779.97 726,738.29 726,688L726,418L606,418Z"
                      style="fill:#879A9D;fill-rule:nonzero;"/>
            </g>
    </g>
</svg>
