<svg xmlns:xlink="http://www.w3.org/1999/xlink" xmlns="http://www.w3.org/2000/svg" class="c-mr-only-2" width="20" height="20" viewBox="0 0 20 20" fill="none"><path d="M4.21651 12.6332C4.21651 13.7947 3.27776 14.7335 2.11625 14.7335C0.954744 14.7335 0.0159912 13.7947 0.0159912 12.6332C0.0159912 11.4717 0.954744 10.533 2.11625 10.533H4.21651V12.6332ZM5.26664 12.6332C5.26664 11.4717 6.20539 10.533 7.3669 10.533C8.52841 10.533 9.46716 11.4717 9.46716 12.6332V17.8839C9.46716 19.0454 8.52841 19.9841 7.3669 19.9841C6.20539 19.9841 5.26664 19.0454 5.26664 17.8839V12.6332Z" fill="#090A3A" fill-opacity="0.6"></path><path d="M7.36682 4.20052C6.20531 4.20052 5.26656 3.26177 5.26656 2.10026C5.26656 0.938753 6.20531 0 7.36682 0C8.52833 0 9.46708 0.938753 9.46708 2.10026V4.20052H7.36682ZM7.36682 5.26656C8.52833 5.26656 9.46708 6.20531 9.46708 7.36682C9.46708 8.52833 8.52833 9.46708 7.36682 9.46708H2.10026C0.938753 9.46708 0 8.52833 0 7.36682C0 6.20531 0.938753 5.26656 2.10026 5.26656H7.36682Z" fill="#090A3A" fill-opacity="0.6"></path><path d="M15.7836 7.36682C15.7836 6.20531 16.7224 5.26656 17.8839 5.26656C19.0454 5.26656 19.9841 6.20531 19.9841 7.36682C19.9841 8.52833 19.0454 9.46708 17.8839 9.46708H15.7836V7.36682ZM14.7335 7.36682C14.7335 8.52833 13.7947 9.46708 12.6332 9.46708C11.4717 9.46708 10.533 8.52833 10.533 7.36682V2.10026C10.533 0.938753 11.4717 0 12.6332 0C13.7947 0 14.7335 0.938753 14.7335 2.10026V7.36682Z" fill="#090A3A" fill-opacity="0.6"></path><path d="M12.6332 15.7836C13.7947 15.7836 14.7335 16.7224 14.7335 17.8839C14.7335 19.0454 13.7947 19.9841 12.6332 19.9841C11.4717 19.9841 10.533 19.0454 10.533 17.8839V15.7836H12.6332ZM12.6332 14.7335C11.4717 14.7335 10.533 13.7947 10.533 12.6332C10.533 11.4717 11.4717 10.533 12.6332 10.533H17.8998C19.0613 10.533 20 11.4717 20 12.6332C20 13.7947 19.0613 14.7335 17.8998 14.7335H12.6332Z" fill="#090A3A" fill-opacity="0.6"></path></svg>