<svg width="80" height="24" viewBox="0 0 158 38" fill="none" xmlns="http://www.w3.org/2000/svg">
<path d="M0.046875 13.0469C0.046875 7.52403 4.52403 3.04688 10.0469 3.04688H12.7734C15.3828 3.04688 17.625 3.4375 19.5 4.21875C21.3906 5 22.8438 6.15625 23.8594 7.6875C24.875 9.21875 25.3828 11.1016 25.3828 13.3359C25.3828 15.1641 25.0703 16.7344 24.4453 18.0469C23.8359 19.3438 22.9688 20.4297 21.8438 21.3047C20.8749 22.0552 19.7572 22.6746 18.4905 23.1629C18.1198 23.3058 17.7531 23.4601 17.4015 23.6452V23.6452C16.286 24.2323 15.0444 24.5391 13.7839 24.5391H7.35947C5.85415 24.5391 4.63025 23.3256 4.61739 21.8203V21.8203C4.60437 20.2967 5.83585 19.0547 7.35947 19.0547H12.8203C14.0547 19.0547 15.0781 18.8359 15.8906 18.3984C16.7031 17.9609 17.3125 17.3516 17.7188 16.5703C18.1406 15.7891 18.3516 14.8828 18.3516 13.8516C18.3516 12.7578 18.1484 11.8125 17.7422 11.0156C17.3359 10.2188 16.7188 9.60938 15.8906 9.1875C15.0625 8.76562 14.0234 8.55469 12.7734 8.55469V8.55469C9.3294 8.55469 6.55715 11.3835 6.62671 14.8268L7.0064 33.6215C7.04578 35.5706 5.47652 37.1719 3.52699 37.1719V37.1719C1.60498 37.1719 0.046875 35.6138 0.046875 33.6918V13.0469ZM22.9063 37.1719C20.5853 37.1719 18.4599 35.8718 17.4029 33.8055L13.8274 26.8159C12.6881 24.5888 14.2954 21.9423 16.797 21.9265V21.9265C18.0169 21.9188 19.1451 22.573 19.7444 23.6356L26.8238 36.1876C26.9337 36.3824 26.9374 36.6196 26.8337 36.8178V36.8178C26.7198 37.0355 26.4945 37.1719 26.2489 37.1719H22.9063Z" fill="url(#paint0_linear_421_59)"/>
<path d="M42.0469 36.4688C40.0781 36.4688 38.3125 36.1562 36.75 35.5312C35.1875 34.8906 33.8594 34.0078 32.7656 32.8828C31.6875 31.7578 30.8594 30.4531 30.2812 28.9688C29.7031 27.4688 29.4141 25.875 29.4141 24.1875V23.25C29.4141 21.3281 29.6875 19.5703 30.2344 17.9766C30.7812 16.3828 31.5625 15 32.5781 13.8281C33.6094 12.6562 34.8594 11.7578 36.3281 11.1328C37.7969 10.4922 39.4531 10.1719 41.2969 10.1719C43.0938 10.1719 44.6875 10.4688 46.0781 11.0625C47.4688 11.6562 48.6328 12.5 49.5703 13.5938C50.5234 14.6875 51.2422 16 51.7266 17.5312C52.2109 19.0469 52.4531 20.7344 52.4531 22.5938V22.5938C52.4531 24.1471 51.1939 25.4062 49.6406 25.4062H34.5469C33.3042 25.4062 32.2969 24.3989 32.2969 23.1562V23.1562C32.2969 21.9136 33.3042 20.9062 34.5469 20.9062H45.3047C45.5895 20.9062 45.8203 20.6754 45.8203 20.3906V20.3906C45.8203 19.4531 45.6484 18.6172 45.3047 17.8828C44.9766 17.1328 44.4766 16.5391 43.8047 16.1016C43.1328 15.6641 42.2734 15.4453 41.2266 15.4453C40.3359 15.4453 39.5703 15.6406 38.9297 16.0312C38.2891 16.4219 37.7656 16.9688 37.3594 17.6719C36.9688 18.375 36.6719 19.2031 36.4688 20.1562C36.2812 21.0938 36.1875 22.125 36.1875 23.25V24.1875C36.1875 25.2031 36.3281 26.1406 36.6094 27C36.9062 27.8594 37.3203 28.6016 37.8516 29.2266C38.3984 29.8516 39.0547 30.3359 39.8203 30.6797C40.6016 31.0234 41.4844 31.1953 42.4688 31.1953C43.6875 31.1953 44.8203 30.9609 45.8672 30.4922C46.0683 30.4005 46.2642 30.3001 46.4547 30.1911C47.7649 29.441 49.5352 29.3177 50.558 30.4282V30.4282C51.3368 31.2738 51.4357 32.5667 50.5893 33.3448C50.3194 33.5929 50.0266 33.8373 49.7109 34.0781C48.8047 34.7812 47.7109 35.3594 46.4297 35.8125C45.1484 36.25 43.6875 36.4688 42.0469 36.4688Z" fill="url(#paint1_linear_421_59)"/>
<path d="M56.2969 3.375C56.2969 1.51104 57.8079 0 59.6719 0V0C61.5358 0 63.0469 1.51104 63.0469 3.375V30.1875L62.6992 33.161C62.5099 34.7796 61.1385 36 59.5089 36V36C57.7349 36 56.2969 34.5619 56.2969 32.788V3.375ZM79.1016 23.0625V23.5547C79.1016 25.4453 78.8984 27.1797 78.4922 28.7578C78.1016 30.3359 77.4922 31.7031 76.6641 32.8594C75.8359 34 74.8047 34.8906 73.5703 35.5312C72.3516 36.1562 70.9141 36.4688 69.2578 36.4688C67.7109 36.4688 66.3672 36.1562 65.2266 35.5312C64.1016 34.9062 63.1562 34.0234 62.3906 32.8828C61.625 31.7422 61.0078 30.4062 60.5391 28.875C60.0703 27.3438 59.7188 25.6719 59.4844 23.8594V22.7812C59.7188 20.9688 60.0703 19.2969 60.5391 17.7656C61.0078 16.2344 61.625 14.8984 62.3906 13.7578C63.1562 12.6172 64.1016 11.7344 65.2266 11.1094C66.3516 10.4844 67.6797 10.1719 69.2109 10.1719C70.8828 10.1719 72.3359 10.4922 73.5703 11.1328C74.8203 11.7578 75.8516 12.6484 76.6641 13.8047C77.4922 14.9453 78.1016 16.3047 78.4922 17.8828C78.8984 19.4453 79.1016 21.1719 79.1016 23.0625ZM72.3516 23.5547V23.0625C72.3516 22.0312 72.2734 21.0625 72.1172 20.1562C71.9766 19.2344 71.7266 18.4297 71.3672 17.7422C71.0078 17.0391 70.5156 16.4844 69.8906 16.0781C69.2812 15.6719 68.4922 15.4688 67.5234 15.4688C66.6016 15.4688 65.8203 15.625 65.1797 15.9375C64.5391 16.25 64.0078 16.6875 63.5859 17.25C63.1797 17.8125 62.875 18.4844 62.6719 19.2656C62.4688 20.0312 62.3438 20.875 62.2969 21.7969V24.8672C62.3438 26.1016 62.5469 27.1953 62.9062 28.1484C63.2812 29.0859 63.8438 29.8281 64.5938 30.375C65.3594 30.9062 66.3516 31.1719 67.5703 31.1719C68.5234 31.1719 69.3125 30.9844 69.9375 30.6094C70.5625 30.2344 71.0469 29.7031 71.3906 29.0156C71.75 28.3281 72 27.5234 72.1406 26.6016C72.2812 25.6641 72.3516 24.6484 72.3516 23.5547Z" fill="url(#paint2_linear_421_59)"/>
<path d="M98.2969 29.9297V14.0156C98.2969 12.1517 99.8079 10.6406 101.672 10.6406V10.6406C103.536 10.6406 105.047 12.1517 105.047 14.0156V32.7201C105.047 34.5315 103.578 36 101.767 36V36C100.039 36 98.6073 34.6593 98.4941 32.9349L98.2969 29.9297ZM99.0075 25.6985C99.0523 25.1593 99.4787 24.7164 100.02 24.7037V24.7037C100.579 24.6905 101.042 25.1405 101.015 25.6992C100.951 27.0039 100.764 28.2343 100.453 29.3906C100.062 30.8281 99.4766 32.0781 98.6953 33.1406C97.9141 34.1875 96.9297 35.0078 95.7422 35.6016C94.5547 36.1797 93.1562 36.4688 91.5469 36.4688C90.3125 36.4688 89.1719 36.2969 88.125 35.9531C87.0938 35.5938 86.2031 35.0391 85.4531 34.2891C84.7188 33.5234 84.1406 32.5469 83.7188 31.3594C83.3125 30.1562 83.1094 28.7109 83.1094 27.0234V14.0156C83.1094 12.1517 84.6204 10.6406 86.4844 10.6406V10.6406C88.3483 10.6406 89.8594 12.1517 89.8594 14.0156V27.0703C89.8594 27.8203 89.9453 28.4531 90.1172 28.9688C90.3047 29.4844 90.5625 29.9062 90.8906 30.2344C91.2188 30.5625 91.6016 30.7969 92.0391 30.9375C92.4922 31.0781 92.9922 31.1484 93.5391 31.1484C94.9297 31.1484 96.0234 30.8672 96.8203 30.3047C97.6328 29.7422 98.2031 28.9766 98.5312 28.0078C98.7801 27.2953 98.9388 26.5255 99.0075 25.6985Z" fill="url(#paint3_linear_421_59)"/>
<path d="M113.941 10.6406C115.812 10.6406 117.328 12.1569 117.328 14.0273V32.6133C117.328 34.4837 115.812 36 113.941 36V36C112.071 36 110.555 34.4837 110.555 32.6133V14.0273C110.555 12.1569 112.071 10.6406 113.941 10.6406V10.6406ZM110.133 4.03125C110.133 3.04688 110.477 2.23438 111.164 1.59375C111.852 0.953125 112.773 0.632812 113.93 0.632812C115.07 0.632812 115.984 0.953125 116.672 1.59375C117.375 2.23438 117.727 3.04688 117.727 4.03125C117.727 5.01562 117.375 5.82812 116.672 6.46875C115.984 7.10938 115.07 7.42969 113.93 7.42969C112.773 7.42969 111.852 7.10938 111.164 6.46875C110.477 5.82812 110.133 5.01562 110.133 4.03125Z" fill="url(#paint4_linear_421_59)"/>
<path d="M126.645 0C128.515 0 130.031 1.51629 130.031 3.38672V32.6133C130.031 34.4837 128.515 36 126.645 36V36C124.774 36 123.258 34.4837 123.258 32.6133V3.38672C123.258 1.51628 124.774 0 126.645 0V0Z" fill="url(#paint5_linear_421_59)"/>
<path d="M150.586 30.4688V3.39844C150.586 1.52153 152.107 0 153.984 0V0C155.861 0 157.383 1.52153 157.383 3.39844V32.7542C157.383 34.5468 155.93 36 154.137 36V36C152.497 36 151.115 34.7773 150.915 33.1501L150.586 30.4688ZM134.555 23.625V23.1328C134.555 21.1953 134.773 19.4375 135.211 17.8594C135.648 16.2656 136.289 14.8984 137.133 13.7578C137.977 12.6172 139.016 11.7344 140.25 11.1094C141.484 10.4844 142.891 10.1719 144.469 10.1719C145.953 10.1719 147.25 10.4844 148.359 11.1094C149.484 11.7344 150.438 12.625 151.219 13.7812C152.016 14.9219 152.656 16.2734 153.141 17.8359C153.625 19.3828 153.977 21.0781 154.195 22.9219V24C153.977 25.7656 153.625 27.4062 153.141 28.9219C152.656 30.4375 152.016 31.7656 151.219 32.9062C150.438 34.0312 149.484 34.9062 148.359 35.5312C147.234 36.1562 145.922 36.4688 144.422 36.4688C142.844 36.4688 141.438 36.1484 140.203 35.5078C138.984 34.8672 137.953 33.9688 137.109 32.8125C136.281 31.6562 135.648 30.2969 135.211 28.7344C134.773 27.1719 134.555 25.4688 134.555 23.625ZM141.305 23.1328V23.625C141.305 24.6719 141.383 25.6484 141.539 26.5547C141.711 27.4609 141.984 28.2656 142.359 28.9688C142.75 29.6562 143.25 30.1953 143.859 30.5859C144.484 30.9609 145.242 31.1484 146.133 31.1484C147.289 31.1484 148.242 30.8906 148.992 30.375C149.742 29.8438 150.312 29.1172 150.703 28.1953C151.109 27.2734 151.344 26.2109 151.406 25.0078V21.9375C151.359 20.9531 151.219 20.0703 150.984 19.2891C150.766 18.4922 150.438 17.8125 150 17.25C149.578 16.6875 149.047 16.25 148.406 15.9375C147.781 15.625 147.039 15.4688 146.18 15.4688C145.305 15.4688 144.555 15.6719 143.93 16.0781C143.305 16.4688 142.797 17.0078 142.406 17.6953C142.031 18.3828 141.75 19.1953 141.562 20.1328C141.391 21.0547 141.305 22.0547 141.305 23.1328Z" fill="url(#paint6_linear_421_59)"/>
<defs>
<linearGradient id="paint0_linear_421_59" x1="39" y1="25.5" x2="110.5" y2="25.5" gradientUnits="userSpaceOnUse">
<stop stop-color="#6370E4"/>
<stop offset="1" stop-color="#09A6FF"/>
</linearGradient>
<linearGradient id="paint1_linear_421_59" x1="39" y1="25.5" x2="110.5" y2="25.5" gradientUnits="userSpaceOnUse">
<stop stop-color="#6370E4"/>
<stop offset="1" stop-color="#09A6FF"/>
</linearGradient>
<linearGradient id="paint2_linear_421_59" x1="39" y1="25.5" x2="110.5" y2="25.5" gradientUnits="userSpaceOnUse">
<stop stop-color="#6370E4"/>
<stop offset="1" stop-color="#09A6FF"/>
</linearGradient>
<linearGradient id="paint3_linear_421_59" x1="39" y1="25.5" x2="110.5" y2="25.5" gradientUnits="userSpaceOnUse">
<stop stop-color="#6370E4"/>
<stop offset="1" stop-color="#09A6FF"/>
</linearGradient>
<linearGradient id="paint4_linear_421_59" x1="39" y1="25.5" x2="110.5" y2="25.5" gradientUnits="userSpaceOnUse">
<stop stop-color="#6370E4"/>
<stop offset="1" stop-color="#09A6FF"/>
</linearGradient>
<linearGradient id="paint5_linear_421_59" x1="39" y1="25.5" x2="110.5" y2="25.5" gradientUnits="userSpaceOnUse">
<stop stop-color="#6370E4"/>
<stop offset="1" stop-color="#09A6FF"/>
</linearGradient>
<linearGradient id="paint6_linear_421_59" x1="39" y1="25.5" x2="110.5" y2="25.5" gradientUnits="userSpaceOnUse">
<stop stop-color="#6370E4"/>
<stop offset="1" stop-color="#09A6FF"/>
</linearGradient>
</defs>
</svg>
